<svg width="152" height="106" viewBox="0 0 152 106" fill="none" xmlns="http://www.w3.org/2000/svg">
<path d="M92.2692 5.5H12.7308C8.73733 5.5 5.5 9.08172 5.5 13.5V77.5C5.5 81.9183 8.73733 85.5 12.7308 85.5H92.2692C96.2627 85.5 99.5 81.9183 99.5 77.5V13.5C99.5 9.08172 96.2627 5.5 92.2692 5.5Z" stroke="black" stroke-width="11" stroke-linecap="round" stroke-linejoin="round"/>
<path d="M99.5 38.5C99.5 32.4249 104.425 27.5 110.5 27.5H126.773C130.136 27.5027 133.395 28.6538 135.994 30.7576C138.593 32.8613 140.371 35.7876 141.027 39.0383L145.756 72.9822C146.678 79.597 141.54 85.5 134.861 85.5H110.5C104.425 85.5 99.5 80.5751 99.5 74.5V38.5Z" stroke="black" stroke-width="11" stroke-linecap="round" stroke-linejoin="round"/>
<path d="M35 100.5C43.0081 100.5 49.5 93.7843 49.5 85.5C49.5 77.2157 43.0081 70.5 35 70.5C26.9919 70.5 20.5 77.2157 20.5 85.5C20.5 93.7843 26.9919 100.5 35 100.5Z" fill="white" stroke="black" stroke-width="11" stroke-linecap="round" stroke-linejoin="round"/>
<path d="M114.5 100.5C122.784 100.5 129.5 93.7843 129.5 85.5C129.5 77.2157 122.784 70.5 114.5 70.5C106.216 70.5 99.5 77.2157 99.5 85.5C99.5 93.7843 106.216 100.5 114.5 100.5Z" fill="white" stroke="black" stroke-width="11" stroke-linecap="round" stroke-linejoin="round"/>
</svg>
