<svg width="82" height="83" viewBox="0 0 82 83" fill="none" xmlns="http://www.w3.org/2000/svg">
<path d="M74.0861 72.2974C74.1527 78.0779 69.3972 82.8629 63.5514 82.8578H56.9224C51.8137 82.8527 47.2732 80.0945 44.8827 75.4518C44.2377 74.2073 42.8095 73.2574 41.8165 73.1914C40.4548 73.1 38.868 73.8619 38.2076 75.1267C34.0562 83.0559 26.8846 83.4724 18.2592 82.7562C12.4953 82.2787 8.77893 77.3414 8.77381 71.9672V65.1403C8.76869 61.9148 11.0364 57.7953 15.0189 57.7851L66.6279 57.6987C70.5336 57.6937 73.953 60.1979 73.9991 64.2971L74.0861 72.2974Z" fill="#FFBA2E"/>
<path d="M81.9284 47.3821H1.29511C1.03404 46.3357 0.987971 43.6029 1.84795 43.0289C2.88709 42.3381 5.22644 42.0384 5.23668 40.9057C5.38001 27.3077 12.8229 15.1066 24.5452 8.96034C24.6527 10.6163 24.9445 11.7236 25.5793 12.3332C26.1833 12.9122 28.5073 12.1706 28.5175 11.2919L28.6097 2.15881C28.6199 1.1683 29.6949 0.126989 30.6777 0.11683L39.6102 0.0609547V20.5875C39.6051 21.4408 41.0742 22.4872 41.8216 22.3907C42.7481 22.2688 43.6235 21.197 43.6235 20.1455L43.6081 0.0355569L52.4536 0C53.4211 0 54.5882 1.21401 54.5984 2.14357L54.6701 11.2665C54.6752 12.1351 56.9787 12.9224 57.6288 12.3789C58.412 11.7236 58.6629 10.2607 58.581 8.86383C70.5592 15.32 78.038 27.6074 77.8895 41.3527L81.6827 42.9883C81.9796 44.1109 82.0819 46.0208 81.9284 47.3821Z" fill="#FFBA2E"/>
<path d="M4.14633 66.1358C4.14633 64.9997 3.21814 64.0786 2.07316 64.0786C0.928187 64.0786 0 64.9997 0 66.1358V74.446C0 75.5822 0.928187 76.5032 2.07316 76.5032C3.21814 76.5032 4.14633 75.5822 4.14633 74.446V66.1358Z" fill="#FFBA2E"/>
<path d="M82 66.1358C82 64.9997 81.0718 64.0786 79.9268 64.0786C78.7818 64.0786 77.8536 64.9997 77.8536 66.1358V74.446C77.8536 75.5822 78.7818 76.5032 79.9268 76.5032C81.0718 76.5032 82 75.5822 82 74.446V66.1358Z" fill="#FFBA2E"/>
</svg>
