<svg width="128" height="48" viewBox="0 0 128 48" fill="none" xmlns="http://www.w3.org/2000/svg">
<g clip-path="url(#clip0_353_2)">
<path d="M25.2908 19.4677C24.9523 19.2765 24.6734 18.9965 24.483 18.6565C24.0849 17.9438 24.0849 17.0727 24.483 16.3599C24.6734 16.02 24.9523 15.7399 25.2908 15.5487C25.6524 15.3517 26.0582 15.2513 26.4698 15.257C26.8082 15.2397 27.1467 15.2918 27.4641 15.4116C27.7487 15.5352 28.0026 15.7206 28.2064 15.9543L27.6814 16.4411C27.3929 16.1108 26.9736 15.9234 26.5351 15.9292C26.2524 15.9215 25.9736 15.991 25.7274 16.132C25.4985 16.2556 25.3081 16.4411 25.1773 16.6671C25.0427 16.9162 24.9773 17.1963 24.9831 17.4783C24.9735 17.7622 25.0389 18.0423 25.1773 18.2895C25.3043 18.5194 25.4947 18.7087 25.7274 18.8323C25.9755 18.9675 26.2543 19.0332 26.5351 19.0274C26.9736 19.0351 27.3929 18.8477 27.6814 18.5155L28.2064 19.01C28.0045 19.2437 27.7487 19.4272 27.4641 19.545C27.1544 19.6744 26.8217 19.7382 26.4871 19.7324C26.0736 19.7439 25.662 19.6532 25.2908 19.4639V19.4677Z" fill="white"/>
<path d="M33.9261 19.4677C32.8568 18.8901 32.4587 17.5516 33.0337 16.4796C33.2376 16.0991 33.5472 15.7881 33.9261 15.5834C34.6723 15.1932 35.5628 15.1932 36.309 15.5834C36.6475 15.7746 36.9264 16.0547 37.1168 16.3946C37.7534 17.4319 37.4341 18.7916 36.4014 19.431C36.3706 19.4503 36.3398 19.4677 36.309 19.485C35.557 19.8598 34.6723 19.852 33.9261 19.4696V19.4677ZM35.8975 18.8515C36.1263 18.7279 36.3148 18.5386 36.4379 18.3088C36.7052 17.822 36.7052 17.231 36.4379 16.7423C36.3148 16.5125 36.1263 16.3232 35.8975 16.1995C35.6532 16.0547 35.3724 15.9851 35.0897 15.9967C34.807 15.9851 34.5262 16.0547 34.2819 16.1995C34.0531 16.327 33.8627 16.5144 33.7319 16.7423C33.4742 17.231 33.4742 17.8182 33.7319 18.3088C33.8607 18.5367 34.0511 18.726 34.2819 18.8515C34.5281 18.9906 34.807 19.0563 35.0897 19.0466C35.3609 19.0389 35.6244 18.9616 35.8571 18.8187L35.8975 18.8515Z" fill="white"/>
<path d="M46.0831 17.7969C46.2254 17.9978 46.3004 18.2393 46.2927 18.4865C46.3062 18.8322 46.1427 19.1606 45.8561 19.3537C45.4772 19.5836 45.0368 19.6918 44.5964 19.6628H42.4558V15.3227H44.4752C44.8906 15.2956 45.3022 15.3999 45.6542 15.6221C45.9177 15.8075 46.0715 16.1107 46.0658 16.4333C46.0696 16.6322 46.0196 16.8293 45.9196 17.0012C45.8215 17.1673 45.6792 17.3025 45.508 17.3913C45.7388 17.4589 45.9407 17.6019 46.0811 17.7969H46.0831ZM43.2559 15.9543V17.146H44.4271C44.6522 17.1595 44.8772 17.1093 45.0734 16.9992C45.2214 16.9007 45.308 16.7307 45.3003 16.553C45.3118 16.3734 45.2253 16.2034 45.0734 16.1069C44.8791 15.991 44.6541 15.9369 44.4271 15.9523H43.2559V15.9543ZM45.4849 18.388C45.4849 17.9669 45.1695 17.7641 44.5483 17.7641H43.2559V19.0138H44.5483C45.1695 19.0292 45.4849 18.8187 45.4849 18.4054V18.3899V18.388Z" fill="white"/>
<path d="M54.5819 18.9809V19.6627H51.3508V15.3226H54.5088V15.9967H52.1509V17.1247H54.2357V17.7892H52.1509V18.9809H54.5819Z" fill="white"/>
<path d="M62.498 19.6627L61.6171 18.3899H60.4785V19.655H59.6708V15.3226H61.4479C61.7825 15.3168 62.1152 15.3806 62.4249 15.51C62.6864 15.6201 62.9076 15.8074 63.0634 16.045C63.2115 16.2884 63.2884 16.5704 63.2807 16.8562C63.2807 17.144 63.1999 17.4241 63.0461 17.6675C62.8768 17.9109 62.6364 18.0943 62.3595 18.1948L63.3538 19.6222L62.498 19.6627ZM62.1979 16.2227C61.9652 16.0508 61.6787 15.9697 61.3902 15.9948H60.4766V17.7235H61.3902C61.6787 17.7486 61.9652 17.6675 62.1979 17.4956C62.3806 17.3353 62.4826 17.0996 62.4729 16.8543C62.4883 16.6109 62.3864 16.3753 62.1979 16.2208V16.2227Z" fill="white"/>
<path d="M69.1947 16.0045H67.7657V15.3226H71.4334V16.0045H70.0044V19.6627H69.1966V16.0045H69.1947Z" fill="white"/>
<path d="M76.6088 19.2166C76.255 18.8226 76.0742 18.303 76.1088 17.7718V15.3381H76.9166V17.7718C76.9166 18.6236 77.2801 19.0447 78.0148 19.0447C78.7494 19.0447 79.1052 18.6236 79.1052 17.7718V15.3381H79.913V17.7718C79.9476 18.3011 79.7668 18.8226 79.413 19.2166C79.0398 19.572 78.5359 19.7536 78.0244 19.7188C77.5032 19.7574 76.9916 19.5739 76.6108 19.2166H76.6088Z" fill="white"/>
<path d="M88.0484 19.6627L87.1675 18.3899H86.0213V19.655H85.2135V15.3226H86.9906C87.3252 15.3168 87.658 15.3806 87.9676 15.51C88.2311 15.6162 88.4542 15.8036 88.6061 16.045C88.7619 16.2865 88.8408 16.5685 88.8331 16.8562C88.8331 17.144 88.7504 17.428 88.5907 17.6675C88.4273 17.9128 88.1888 18.0982 87.9118 18.1948L88.9061 19.6222L88.0503 19.6627H88.0484ZM87.7483 16.2227C87.5156 16.0508 87.2291 15.9697 86.9406 15.9948H85.9963V17.7235H86.9406C87.2291 17.7486 87.5156 17.6675 87.7483 17.4956C87.9311 17.3353 88.033 17.0996 88.0234 16.8543C88.0311 16.6129 87.9291 16.3811 87.7483 16.2208V16.2227Z" fill="white"/>
<path d="M96.7222 18.6564H94.5566L94.1374 19.6627H93.3296L95.2759 15.3226H96.0837L98.03 19.6627H97.2223L96.7222 18.6564ZM96.4568 18.0229L95.649 16.1242L94.8413 18.0229H96.4568Z" fill="white"/>
<path d="M103.113 19.5817C102.842 19.5083 102.588 19.3789 102.371 19.2012L102.653 18.5773C102.846 18.7299 103.065 18.8438 103.3 18.9172C103.559 19.0099 103.832 19.0563 104.107 19.0544C104.356 19.0679 104.606 19.0157 104.827 18.8998C104.975 18.8149 105.067 18.6584 105.069 18.4865C105.071 18.3706 105.021 18.2605 104.932 18.1871C104.834 18.1021 104.723 18.0365 104.602 17.992L104.044 17.8375C103.769 17.7776 103.5 17.6984 103.236 17.6019C103.036 17.5227 102.855 17.3971 102.711 17.2368C102.559 17.0437 102.48 16.8022 102.494 16.555C102.494 16.3213 102.561 16.0934 102.688 15.8983C102.832 15.6916 103.034 15.5294 103.269 15.4366C103.575 15.313 103.902 15.2512 104.231 15.2589C104.504 15.2532 104.775 15.2899 105.038 15.3652C105.275 15.4193 105.5 15.5139 105.7 15.6491L105.45 16.273C105.265 16.1648 105.067 16.0798 104.859 16.0219C104.663 15.962 104.459 15.9311 104.254 15.933C104.007 15.9118 103.763 15.9697 103.552 16.0953C103.405 16.188 103.315 16.3502 103.317 16.526C103.317 16.6419 103.367 16.752 103.454 16.8254C103.552 16.9085 103.663 16.9722 103.784 17.0128L104.342 17.1673C104.617 17.2252 104.886 17.3044 105.15 17.4029C105.352 17.4783 105.533 17.6038 105.675 17.768C105.829 17.9573 105.908 18.1968 105.892 18.4421C105.892 18.6739 105.827 18.8998 105.698 19.0911C105.552 19.2997 105.346 19.4619 105.108 19.5527C104.802 19.6744 104.475 19.7323 104.146 19.7227C103.796 19.7304 103.448 19.6821 103.111 19.5855L103.113 19.5817Z" fill="white"/>
<path d="M0 48.0001C2.09442 39.5478 4.19461 31.3562 6.30057 23.4274H23.8291V28.7487C19.4017 28.8298 14.9763 28.9264 10.549 29.0403C9.43931 33.1081 8.34691 37.2396 7.26989 41.4368C12.7781 40.9655 18.294 40.5657 23.8137 40.2354V45.549C15.8495 46.1825 7.91033 46.9976 0 47.9981L0 48.0001Z" fill="white"/>
<path d="M39.9036 23.4099H34.355V23.4176H39.9036V23.4099Z" fill="white"/>
<path d="M39.9036 28.4955V39.4646C42.575 39.368 45.2464 39.2869 47.9178 39.2212V44.2181C40.6959 44.446 33.4818 44.8265 26.2773 45.3615C26.2697 43.6096 26.2773 41.85 26.2773 40.0962C28.9564 39.9455 31.6374 39.8103 34.3185 39.6925L34.3435 28.567C31.6644 28.6037 28.9872 28.6443 26.31 28.6906C26.31 26.931 26.31 25.1463 26.3177 23.4176H47.9408V28.4144C45.2617 28.4376 42.5807 28.4627 39.9036 28.4955Z" fill="white"/>
<path d="M63.071 30.0137C62.0632 27.8176 61.0516 25.6195 60.0342 23.4176H52.045C50.968 30.3131 49.891 37.2356 48.814 44.1852C50.6988 44.1253 52.5835 44.0828 54.4683 44.0558C55.2222 39.1285 55.9762 34.2186 56.7301 29.3242L59.8073 35.0028C62.3767 35.0028 64.95 35.0028 67.5291 35.0028L70.664 29.3242C71.4179 34.2244 72.1718 39.1285 72.9258 44.0404C74.799 44.0404 76.6665 44.1215 78.5801 44.1698C77.5031 37.226 76.4261 30.3092 75.3491 23.4176H67.4176C66.4059 25.6137 65.3924 27.8118 64.3808 30.0137H63.0729H63.071Z" fill="white"/>
<path d="M121.634 47.2371C120.455 45.5277 119.276 43.8492 118.095 42.1997C115.672 41.9891 113.297 41.8018 110.891 41.6241V46.1264L105.342 45.6397L105.294 23.4119H110.843L110.891 36.1637L115.058 36.3916C116.135 32.1346 117.212 27.808 118.289 23.4119H124.065C122.95 27.9123 121.838 32.347 120.728 36.7161C123.167 40.3338 125.59 44.0926 127.998 47.9923C125.906 47.7335 123.773 47.4804 121.632 47.2371H121.634Z" fill="white"/>
<path d="M99.8571 23.4099H83.9442C82.8671 30.3981 81.7632 37.338 80.6323 44.2335C82.5056 44.2915 84.373 44.3649 86.2867 44.446C86.5059 43.065 86.7252 41.6839 86.9444 40.2991C90.2967 40.4169 93.6527 40.5637 97.0088 40.7414C97.2338 42.1823 97.4588 43.6251 97.6839 45.0699C99.559 45.1896 101.427 45.3248 103.29 45.4755C102.132 38.0392 100.988 30.684 99.8571 23.4099ZM87.7407 35.2636C88.0965 33.0095 88.4503 30.7516 88.8061 28.4879L95.099 28.569C95.4644 30.881 95.8279 33.1988 96.1933 35.5244C93.3835 35.422 90.564 35.3351 87.7407 35.2636Z" fill="white"/>
<path d="M30.1951 12.1183H46.0446C46.0446 12.1183 65.0194 -7.90379 87.7176 12.1183H90.8025C90.8025 12.1183 82.7806 1.09319 62.8288 0.038582C41.8904 -0.716639 31.2375 9.91054 30.1951 12.1183Z" fill="white"/>
</g>
<defs>
<clipPath id="clip0_353_2">
<rect width="128" height="48" fill="white"/>
</clipPath>
</defs>
</svg>
