<svg width="94" height="79" viewBox="0 0 94 79" fill="none" xmlns="http://www.w3.org/2000/svg">
<g clip-path="url(#clip0_23_42)">
<path d="M70.8258 38.0936C67.075 49.1148 57.5764 56.8043 46.9087 61.3566C44.8506 60.6254 43.0301 59.6642 41.0938 58.479L51.798 47.7408C53.1741 46.361 52.8697 44.2322 51.5362 43.0175C50.2028 41.8027 48.0717 41.6848 46.6773 43.0764L35.078 54.6283C24.7269 45.9659 20.9762 36.9909 20.7874 23.9058C26.4257 23.5284 30.2434 18.4748 28.8308 13.1794C28.4777 11.5637 27.7531 10.1956 27.1564 8.63298C34.3473 7.14108 40.9903 4.27521 46.933 0C54.4589 5.50765 63.1903 8.65656 72.4515 9.55288C72.7986 10.9976 72.8716 12.3126 72.829 13.7455C68.7007 14.6065 66.2348 18.3923 66.801 22.4375L56.8822 22.5436C54.6963 22.5672 53.716 25.3033 54.4406 26.9132C52.8514 26.9073 51.5058 26.7894 50.1297 27.0665C48.4187 27.4085 47.4871 28.9063 47.5724 30.469C47.6576 32.0316 48.9485 33.5235 50.7629 33.553L55.0556 33.6297C54.7633 34.8326 54.7877 35.9295 55.4757 36.8553C55.9202 37.4567 56.9431 38.0877 58.0696 38.0877L70.8258 38.1054V38.0936ZM35.7234 35.8351C38.2259 35.841 40.1683 34.4317 41.179 32.9221C42.5247 30.9171 42.5064 28.7884 41.721 26.6832C40.284 22.8326 38.232 19.4596 35.7356 15.721C33.4218 19.0822 31.2968 22.6144 29.8111 26.4827C28.9648 28.6881 28.9343 30.811 30.3043 32.8985C31.3029 34.4199 33.2087 35.8233 35.7234 35.8292V35.8351Z" fill="black"/>
<path d="M50.1723 46.6499L31.1994 65.6554C30.5722 66.2864 29.458 66.3276 28.8186 65.6908L7.09353 44.0081L3.70203 47.1157L0.986389 35.7997L12.5492 38.8248L9.30988 41.9737L30.012 62.6421L48.2787 44.356C48.8815 43.7545 49.8861 44.1614 50.2332 44.5624C50.7142 45.1167 50.8725 45.954 50.1723 46.6558V46.6499Z" fill="black"/>
<path d="M20.2942 1.59216C23.8501 7.22954 30.4017 15.6031 24.5016 20.35C22.1635 22.2311 18.7233 22.2016 16.3547 20.4915C10.1988 16.0571 16.4826 7.71898 20.2942 1.59216Z" fill="black"/>
<path d="M50.5437 29.1009L88.4104 29.0124C90.371 29.0124 91.5583 27.0842 91.5888 25.663C91.6253 23.8881 90.2919 22.4433 88.5992 22.2134C86.7725 21.9657 84.9397 23.1628 84.6901 25.0321C84.5805 25.8222 84.3126 26.2468 83.6124 26.3235C82.9122 26.4001 82.1815 26.0345 82.2119 25.1677C82.3154 22.3667 84.5622 20.1318 87.4849 19.8428C91.053 19.489 93.9391 22.2841 94.0061 25.4153C94.0791 29.095 91.0651 31.7132 87.2961 31.4832C84.8058 31.3299 82.4981 31.5658 79.9773 31.5599L50.9456 31.5186C50.3123 31.5186 49.9592 30.9525 49.807 30.64C49.6365 30.2802 49.7704 29.1186 50.5559 29.1186L50.5437 29.1009Z" fill="black"/>
<path d="M75.2158 39.385C75.2402 38.7128 76.0134 38.5772 76.3422 38.5536C76.671 38.53 77.4504 38.6361 77.4991 39.161C77.6696 40.9595 78.7473 42.3335 80.4949 42.4986C82.2424 42.6637 83.7463 41.6082 84.0934 39.9747C84.4161 38.471 83.3932 36.1654 81.4082 36.1536L58.2157 36.0356C57.4789 36.0356 57.0831 35.4931 57.0223 34.9506C56.9614 34.4081 57.3267 33.5767 58.1548 33.5826L81.5482 33.7359C84.5744 33.7536 86.5837 36.7727 86.6203 39.2081C86.6629 42.1448 84.55 44.645 81.463 44.9104C78.0593 45.1993 75.1001 42.7345 75.2219 39.3909L75.2158 39.385Z" fill="black"/>
<path d="M74.5643 24.4659C76.4032 24.4541 77.5357 22.9681 77.7549 21.6649C78.0167 20.0846 76.9755 18.4806 75.2889 18.0856C73.3161 17.6256 71.5503 19.0821 71.4042 20.9396C71.3372 21.8124 70.6187 22.0954 69.949 21.9952C69.1818 21.8831 68.8834 21.2581 68.9991 20.4207C69.4131 17.3838 72.1531 15.3435 75.161 15.6561C78.1689 15.9686 80.4279 18.4865 80.2331 21.5588C80.0321 24.7254 77.3774 26.9013 74.132 26.9013L57.2415 26.8778C56.5839 26.8778 56.3403 26.0935 56.3647 25.6689C56.389 25.2738 56.6204 24.5603 57.2841 24.5544L74.5704 24.4718L74.5643 24.4659Z" fill="black"/>
<path d="M45.9162 63.3793C47.822 64.2107 52.8453 60.8259 55.8532 59.163L79.3989 59.1453C79.9408 59.1453 80.9759 59.1748 81.3412 59.5876L92.7274 72.3012H0.225281L11.1548 60.1714C11.8855 59.3635 12.8414 59.051 13.9557 59.2161C15.8311 59.1159 17.5847 59.0805 19.4966 59.222L27.2538 66.941C28.6299 68.309 30.9984 68.5626 32.4171 67.1591L39.5959 60.0711C41.6966 61.339 43.7059 62.4181 45.9101 63.3793H45.9162Z" fill="black"/>
<path d="M0.00121471 74.3403L-0.0012207 78.9575L93.1037 79.0059L93.1061 74.3887L0.00121471 74.3403Z" fill="black"/>
</g>
<defs>
<clipPath id="clip0_23_42">
<rect width="94" height="79" fill="white"/>
</clipPath>
</defs>
</svg>
