<svg width="109" height="79" viewBox="0 0 109 79" fill="none" xmlns="http://www.w3.org/2000/svg">
<g clip-path="url(#clip0_23_29)">
<path d="M50.8433 73.2427C50.5418 71.7555 48.8675 71.513 47.3408 71.7555L47.1227 62.5898C46.5005 56.1623 43.5882 50.7178 38.8412 46.4094L33.5362 41.5967C32.914 41.0351 32.5098 40.2308 32.4521 39.5479C32.388 38.7628 32.7793 37.9649 33.4143 37.3841L38.1998 32.98C43.3637 28.6588 46.5518 22.9717 47.1291 16.2187L47.3023 7.08492C49.0472 7.46788 50.8754 6.97641 50.9075 5.33603L50.9524 2.64248C50.978 1.18082 50.1954 0 48.6174 0H2.52715C1.44947 0 0.403857 0.453179 0.230658 1.54464C0.0253846 2.89141 -0.077252 4.50626 0.30122 5.82112C0.666863 7.12321 2.16151 7.40406 3.62408 7.06577L3.7652 13.9847C4.09236 29.8971 15.8763 33.8289 18.3909 38.6415C18.9426 39.7011 18.269 40.9776 17.4479 41.7308L11.3603 47.2966C4.20141 53.8326 3.41239 62.226 3.65615 71.6917C2.29622 71.6215 0.859306 71.6598 0.371783 72.7959C-0.205548 74.1363 0.012555 75.815 0.185754 77.3213C0.294805 78.2213 1.37249 78.9936 2.36037 78.9936H32.7921L48.6815 78.8851C49.7015 78.8723 50.7471 78.3107 50.8754 77.2064C51.0229 75.9554 51.0999 74.5065 50.8433 73.2427ZM43.8576 71.6917L7.24202 71.7108L7.35748 63.0111C7.86425 57.7261 10.026 53.0794 13.9326 49.5561L19.8856 44.1818C22.5733 41.7563 22.7915 38.0734 20.3987 35.3097L15.3631 30.5992C10.5328 26.5908 7.59483 21.2547 7.26126 14.8847L7.22919 7.18066L43.8576 7.16789L43.7999 14.8911C43.7486 21.1399 40.7015 26.4567 35.9289 30.4077L30.8228 35.1054C28.1286 37.5883 28.3531 41.6542 31.0729 44.1116L36.8334 49.3327C40.5476 52.6007 42.7863 56.8708 43.5176 61.7856C43.9923 64.9706 43.9474 67.9386 43.8576 71.6917Z" fill="black"/>
<path d="M23.6963 55.6517V36.9373C23.2601 35.7309 22.548 34.2501 20.8802 32.7374L15.2673 27.6248C13.0413 25.6014 11.3286 23.1759 10.5973 20.2335C13.2081 18.7973 16.0948 18.4973 18.975 19.1165L24.9087 21.1398C30.1047 23.4887 34.781 23.01 40.0668 21.159C39.2906 23.9674 37.6741 25.9908 35.7048 27.746L30.2714 32.5714C28.533 34.1161 27.7761 35.6479 27.3142 36.8862V55.741C30.945 57.7197 34.2935 60.0941 37.3277 62.8834C38.9891 64.7535 40.4645 66.5216 40.9392 69.5024L10.0135 69.5534C11.2773 63.1259 17.8332 59.3537 23.3306 55.8687C23.4461 55.7921 23.568 55.7219 23.6963 55.6517Z" fill="black"/>
<path d="M109 38.0224L104.875 44.5903L65.078 20.2271L38.2963 36.6756L42.947 31.8757C45.8336 28.729 47.7132 25.078 48.9256 20.9867L63.9233 11.7571C64.8406 11.189 65.6232 11.3295 66.5213 11.8784L83.7514 22.41L83.8797 13.9719L94.9196 13.9336L94.9837 29.3992L109.006 38.0287L109 38.0224Z" fill="black"/>
<path d="M94.3999 78.7064L94.3807 46.3838L65.0587 28.3396L39.778 43.9392L36.6797 41.2138L65.1357 23.6993L98.3193 44.169V78.6617C97.062 79.0319 95.901 79 94.3999 78.7064Z" fill="black"/>
<path d="M90.1084 57.0432C89.8326 60.8984 87.2025 63.9877 84.117 65.1111C80.204 66.5344 76.3487 65.5196 73.5647 62.6856L64.0067 52.9391C62.5762 51.4838 60.6453 50.6604 58.6247 51.0625C55.2377 51.7391 53.5698 55.4028 54.8913 58.39C56.2769 61.5112 60.1642 62.5516 63.0573 60.4708C64.244 59.6155 65.1357 58.6261 66.1492 57.4772L69.0102 60.5218C65.1229 65.3089 59.5805 67.3642 54.686 64.3324C52.5948 63.0366 50.7281 60.675 50.3304 57.7645C49.7851 53.7943 51.5235 50.0221 54.8207 48.0817C58.1179 46.1414 62.5634 46.3903 65.6168 48.8349L70.4535 53.539L77.0351 60.1452C78.5554 61.6707 80.8519 61.9771 82.8148 61.1282C84.5853 60.3559 85.8939 58.4346 85.9003 56.2453C85.9067 54.222 84.7713 52.4348 83.2382 51.5859C81.3972 50.5646 79.3188 50.8263 77.5996 51.9497L74.1805 55.0581L71.3644 52.1731C73.0323 50.3157 74.7322 48.5094 77.0672 47.5456C80.127 46.2818 83.6231 46.6073 86.2788 48.5413C88.9345 50.4753 90.3458 53.405 90.0892 57.0368L90.1084 57.0432Z" fill="black"/>
</g>
<defs>
<clipPath id="clip0_23_29">
<rect width="109" height="79" fill="white"/>
</clipPath>
</defs>
</svg>
