<svg width="88" height="32" viewBox="0 0 88 32" fill="none" xmlns="http://www.w3.org/2000/svg">
<path d="M17.3877 12.8992C17.155 12.7725 16.9633 12.587 16.8324 12.3617C16.5586 11.8895 16.5586 11.3123 16.8324 10.84C16.9633 10.6148 17.155 10.4292 17.3877 10.3025C17.6363 10.1719 17.9153 10.1054 18.1982 10.1092C18.431 10.0977 18.6637 10.1323 18.8818 10.2116C19.0775 10.2935 19.2521 10.4164 19.3922 10.5712L19.0313 10.8938C18.8329 10.6749 18.5447 10.5508 18.2432 10.5546C18.0488 10.5495 17.8571 10.5956 17.6879 10.689C17.5305 10.7709 17.3996 10.8938 17.3097 11.0435C17.2171 11.2086 17.1722 11.3942 17.1761 11.581C17.1695 11.7692 17.2145 11.9547 17.3097 12.1186C17.397 12.2708 17.5279 12.3963 17.6879 12.4782C17.8584 12.5678 18.0502 12.6113 18.2432 12.6074C18.5447 12.6126 18.8329 12.4884 19.0313 12.2683L19.3922 12.5959C19.2534 12.7508 19.0775 12.8724 18.8818 12.9504C18.669 13.0362 18.4402 13.0784 18.2101 13.0746C17.9259 13.0823 17.6429 13.0221 17.3877 12.8967V12.8992Z" fill="black"/>
<path d="M23.3245 12.8992C22.5894 12.5166 22.3156 11.6296 22.711 10.9193C22.8512 10.6672 23.064 10.4611 23.3245 10.3255C23.8376 10.067 24.4498 10.067 24.9628 10.3255C25.1955 10.4522 25.3872 10.6378 25.5182 10.863C25.9558 11.5503 25.7363 12.4513 25.0263 12.8749C25.0051 12.8877 24.984 12.8992 24.9628 12.9107C24.4458 13.159 23.8376 13.1539 23.3245 12.9005V12.8992ZM24.6798 12.491C24.8372 12.409 24.9668 12.2836 25.0514 12.1313C25.2352 11.8088 25.2352 11.4172 25.0514 11.0934C24.9668 10.9411 24.8372 10.8157 24.6798 10.7338C24.5119 10.6378 24.3189 10.5917 24.1245 10.5994C23.9301 10.5917 23.7371 10.6378 23.5691 10.7338C23.4118 10.8182 23.2809 10.9424 23.191 11.0934C23.0138 11.4172 23.0138 11.8062 23.191 12.1313C23.2796 12.2823 23.4105 12.4078 23.5691 12.491C23.7384 12.5831 23.9301 12.6266 24.1245 12.6202C24.3109 12.6151 24.4921 12.5639 24.6521 12.4692L24.6798 12.491Z" fill="black"/>
<path d="M31.6825 11.7922C31.7803 11.9253 31.8319 12.0853 31.8266 12.2491C31.8359 12.4782 31.7235 12.6958 31.5265 12.8237C31.266 12.976 30.9632 13.0477 30.6604 13.0285H29.1887V10.1527H30.5771C30.8627 10.1348 31.1457 10.2039 31.3876 10.3511C31.5688 10.474 31.6746 10.6749 31.6706 10.8886C31.6732 11.0205 31.6389 11.151 31.5701 11.2649C31.5027 11.375 31.4048 11.4646 31.2871 11.5234C31.4458 11.5682 31.5846 11.6629 31.6812 11.7922H31.6825ZM29.7388 10.5712V11.3609H30.544C30.6987 11.3699 30.8534 11.3366 30.9883 11.2636C31.0901 11.1984 31.1496 11.0857 31.1443 10.968C31.1523 10.849 31.0928 10.7363 30.9883 10.6724C30.8548 10.5956 30.7001 10.5597 30.544 10.57H29.7388V10.5712ZM31.2713 12.1838C31.2713 11.9048 31.0544 11.7704 30.6273 11.7704H29.7388V12.5985H30.6273C31.0544 12.6087 31.2713 12.4692 31.2713 12.1953V12.1851V12.1838Z" fill="black"/>
<path d="M37.5256 12.5767V13.0285H35.3042V10.1527H37.4753V10.5994H35.8543V11.3468H37.2876V11.7871H35.8543V12.5767H37.5256Z" fill="black"/>
<path d="M42.9679 13.0285L42.3623 12.1851H41.5795V13.0234H41.0242V10.1527H42.2459C42.476 10.1489 42.7048 10.1911 42.9176 10.2768C43.0975 10.3498 43.2495 10.4739 43.3566 10.6314C43.4584 10.7926 43.5113 10.9795 43.506 11.1689C43.506 11.3596 43.4505 11.5452 43.3447 11.7064C43.2284 11.8677 43.0631 11.9893 42.8727 12.0558L43.5563 13.0016L42.9679 13.0285ZM42.7616 10.7491C42.6016 10.6352 42.4046 10.5814 42.2063 10.5981H41.5782V11.7435H42.2063C42.4046 11.7602 42.6016 11.7064 42.7616 11.5925C42.8872 11.4863 42.9573 11.3301 42.9507 11.1676C42.9613 11.0064 42.8912 10.8502 42.7616 10.7478V10.7491Z" fill="black"/>
<path d="M47.572 10.6045H46.5896V10.1527H49.1111V10.6045H48.1287V13.0285H47.5734V10.6045H47.572Z" fill="black"/>
<path d="M52.6693 12.7329C52.426 12.4718 52.3017 12.1275 52.3255 11.7755V10.163H52.8809V11.7755C52.8809 12.34 53.1308 12.619 53.6359 12.619C54.141 12.619 54.3856 12.34 54.3856 11.7755V10.163H54.9409V11.7755C54.9647 12.1262 54.8404 12.4718 54.5971 12.7329C54.3406 12.9683 53.9942 13.0887 53.6425 13.0656C53.2841 13.0912 52.9324 12.9696 52.6706 12.7329H52.6693Z" fill="black"/>
<path d="M60.5342 13.0285L59.9286 12.1851H59.1405V13.0234H58.5852V10.1527H59.807C60.037 10.1489 60.2658 10.1911 60.4787 10.2768C60.6598 10.3472 60.8132 10.4714 60.9177 10.6314C61.0248 10.7913 61.079 10.9782 61.0737 11.1689C61.0737 11.3596 61.0168 11.5477 60.9071 11.7064C60.7947 11.869 60.6307 11.9918 60.4403 12.0558L61.1239 13.0016L60.5355 13.0285H60.5342ZM60.3279 10.7491C60.1679 10.6352 59.9709 10.5814 59.7726 10.5981H59.1234V11.7435H59.7726C59.9709 11.7602 60.1679 11.7064 60.3279 11.5925C60.4535 11.4863 60.5236 11.3301 60.517 11.1676C60.5223 11.0076 60.4522 10.8541 60.3279 10.7478V10.7491Z" fill="black"/>
<path d="M66.4975 12.3617H65.0086L64.7204 13.0285H64.165L65.5032 10.1527H66.0585L67.3966 13.0285H66.8413L66.4975 12.3617ZM66.315 11.9419L65.7597 10.6838L65.2043 11.9419H66.315Z" fill="black"/>
<path d="M70.8914 12.9747C70.7049 12.9261 70.5304 12.8404 70.381 12.7226L70.5753 12.3092C70.7076 12.4103 70.8583 12.4858 71.0196 12.5345C71.1981 12.5959 71.3859 12.6266 71.575 12.6253C71.7455 12.6343 71.9174 12.5997 72.0695 12.523C72.1713 12.4666 72.2348 12.363 72.2361 12.2491C72.2374 12.1723 72.203 12.0993 72.1422 12.0507C72.0748 11.9944 71.9981 11.9509 71.9148 11.9214L71.5313 11.819C71.3423 11.7794 71.1571 11.7269 70.976 11.6629C70.8385 11.6104 70.7142 11.5272 70.615 11.421C70.5106 11.293 70.4563 11.1331 70.4656 10.9692C70.4656 10.8144 70.5119 10.6634 70.5991 10.5341C70.6983 10.3972 70.8372 10.2896 70.9985 10.2282C71.2087 10.1463 71.4335 10.1054 71.6596 10.1105C71.8474 10.1066 72.0338 10.131 72.2149 10.1809C72.3776 10.2167 72.5323 10.2794 72.6698 10.369L72.4979 10.7824C72.371 10.7107 72.2348 10.6544 72.092 10.616C71.9571 10.5763 71.8169 10.5559 71.6755 10.5571C71.5062 10.5431 71.3383 10.5815 71.1928 10.6646C71.0923 10.7261 71.0302 10.8336 71.0315 10.95C71.0315 11.0268 71.0659 11.0998 71.1254 11.1484C71.1928 11.2034 71.2695 11.2457 71.3528 11.2726L71.7363 11.3749C71.9254 11.4133 72.1105 11.4658 72.2916 11.5311C72.4305 11.581 72.5548 11.6642 72.6526 11.773C72.7584 11.8984 72.8126 12.0571 72.802 12.2196C72.802 12.3732 72.7571 12.523 72.6685 12.6497C72.568 12.7879 72.4265 12.8954 72.2625 12.9555C72.0523 13.0362 71.8275 13.0746 71.6014 13.0682C71.3608 13.0733 71.1214 13.0413 70.89 12.9773L70.8914 12.9747Z" fill="black"/>
<path d="M0 31.8049C1.43993 26.2043 2.88384 20.7766 4.3317 15.5229H16.3827V19.0488C13.3389 19.1026 10.2964 19.1666 7.25256 19.2421C6.48962 21.9374 5.73858 24.6749 4.99812 27.456C8.78506 27.1437 12.5773 26.8788 16.3722 26.66V30.1808C10.8967 30.6006 5.43843 31.1406 0 31.8036L0 31.8049Z" fill="black"/>
<path d="M27.4341 15.5113H23.6194V15.5166H27.4341V15.5113Z" fill="black"/>
<path d="M27.4341 18.8811V26.1493C29.2707 26.0853 31.1073 26.0316 32.944 25.988V29.299C27.9789 29.45 23.0191 29.7021 18.0659 30.0566C18.0607 28.8958 18.0659 27.7299 18.0659 26.5678C19.9078 26.468 21.7511 26.3784 23.5943 26.3003L23.6115 18.9285C21.7696 18.9528 19.929 18.9797 18.0884 19.0104C18.0884 17.8445 18.0884 16.6619 18.0937 15.5165H32.9598V18.8274C31.1179 18.8428 29.2747 18.8594 27.4341 18.8811Z" fill="black"/>
<path d="M43.3619 19.8871C42.6691 18.4319 41.9736 16.9755 41.2741 15.5165H35.7814C35.041 20.0855 34.3005 24.6724 33.5601 29.2772C34.8559 29.2375 36.1517 29.2094 37.4475 29.1915C37.9658 25.9266 38.4841 22.6733 39.0025 19.4302L41.1181 23.1929C42.8846 23.1929 44.6538 23.1929 46.4269 23.1929L48.5822 19.4302C49.1005 22.6771 49.6188 25.9266 50.1372 29.1812C51.425 29.1812 52.7089 29.235 54.0246 29.267C53.2841 24.666 52.5437 20.0829 51.8032 15.5165H46.3502C45.6547 16.9716 44.9579 18.4281 44.2624 19.8871H43.3633H43.3619Z" fill="black"/>
<path d="M83.6246 31.2993C82.8141 30.1667 82.0035 29.0545 81.1917 27.9615C79.5256 27.822 77.8927 27.6979 76.2385 27.5801V30.5634L72.4238 30.2409L72.3907 15.5126H76.2055L76.2385 23.9621L79.1038 24.1131C79.8443 21.2923 80.5848 18.4255 81.3252 15.5126H85.296C84.529 18.4946 83.7648 21.4331 83.0018 24.3281C84.6785 26.7252 86.3445 29.2158 88 31.7997C86.5614 31.6282 85.095 31.4606 83.6233 31.2993H83.6246Z" fill="black"/>
<path d="M68.6528 15.5113H57.7125C56.972 20.1417 56.213 24.7401 55.4355 29.3091C56.7234 29.3475 58.0073 29.3962 59.323 29.4499C59.4737 28.5348 59.6244 27.6198 59.7752 26.7021C62.0799 26.7802 64.3872 26.8775 66.6945 26.9952C66.8492 27.95 67.004 28.906 67.1587 29.8633C68.4479 29.9426 69.7318 30.0322 71.013 30.1321C70.217 25.2047 69.4303 20.3311 68.6528 15.5113ZM60.3226 23.3656C60.5672 21.872 60.8105 20.3759 61.0551 18.876L65.3815 18.9297C65.6328 20.4617 65.8827 21.9975 66.1339 23.5384C64.2021 23.4706 62.2637 23.413 60.3226 23.3656Z" fill="black"/>
<path d="M20.7594 8.02946H31.6561C31.6561 8.02946 44.7015 -5.23726 60.3067 8.02946H62.4276C62.4276 8.02946 56.9125 0.72419 43.1954 0.0254029C28.8 -0.47501 21.4761 6.56661 20.7594 8.02946Z" fill="black"/>
</svg>
