<svg width="21" height="21" viewBox="0 0 21 21" fill="none" xmlns="http://www.w3.org/2000/svg">
<path d="M14.8547 4.49129C14.0589 4.3593 13.2223 4.19606 12.4413 4.27612C11.2334 4.35422 10.1977 4.68499 9.49836 5.72181C9.03185 6.42201 8.79821 7.21827 8.7776 8.06764L8.77566 10.5127L6.14687 10.5111L6.14765 13.4728H8.76749L8.76361 17.2823L8.75894 20.9531C6.38168 20.5587 4.22796 19.3423 2.63522 17.5392C0.840325 15.507 -0.0923059 12.8648 0.00721623 10.1483C0.208593 4.64242 4.62022 0.210837 10.1021 0.00737824C15.8895 -0.207406 20.7412 4.2933 20.9889 10.0909C21.1168 12.8741 20.1363 15.5878 18.273 17.6439C16.6154 19.4731 14.3804 20.6653 11.9374 21L11.9367 13.4771L14.3473 13.474L14.7415 10.5099H11.9359L11.9324 9.03652C11.9382 8.67451 11.9635 8.32656 12.077 7.98954C12.2593 7.37643 12.797 7.00427 13.426 6.9945L14.8551 6.97146V4.49051H14.8543L14.8547 4.49129Z" fill="black"/>
</svg>
