<svg width="22" height="22" viewBox="0 0 22 22" fill="none" xmlns="http://www.w3.org/2000/svg">
<path d="M21.3275 16.7984C21.3275 19.3616 19.1506 21.6291 16.6429 21.6295L4.73064 21.6323C2.17217 21.6331 0.00198218 19.3455 0.00158558 16.7695L5.00011e-08 4.93643C-0.000396549 2.14279 2.35858 -0.000804276 5.05823 2.26375e-07L16.3161 0.00241373C18.9654 0.00321824 21.3271 2.13837 21.3271 4.88293V16.7984H21.3275ZM19.2759 3.68583C19.2759 2.79886 18.5668 2.08004 17.6919 2.08004C16.817 2.08004 16.1079 2.79886 16.1079 3.68583C16.1079 4.57279 16.817 5.29162 17.6919 5.29162C18.5668 5.29162 19.2759 4.57279 19.2759 3.68583ZM17.4666 10.8387C17.4666 7.03296 14.4231 3.9481 10.6693 3.9481C6.9155 3.9481 3.872 7.03336 3.872 10.8387C3.872 14.644 6.9155 17.7292 10.6693 17.7292C14.4231 17.7292 17.4666 14.644 17.4666 10.8387Z" fill="black"/>
<path d="M10.669 15.3043C13.1023 15.3043 15.0748 13.3045 15.0748 10.8377C15.0748 8.37086 13.1023 6.37109 10.669 6.37109C8.23574 6.37109 6.26318 8.37086 6.26318 10.8377C6.26318 13.3045 8.23574 15.3043 10.669 15.3043Z" fill="black"/>
</svg>
