<svg width="61" height="25" viewBox="0 0 61 25" fill="none" xmlns="http://www.w3.org/2000/svg">
<path d="M2.81819 21.8813L4.86963 21.8543L6.41664 21.8004L7.85916 21.7476L17.7771 21.3791L24.9582 21.0791L26.2536 21.0746C28.6746 21.0668 30.4261 22.5846 32.4989 21.1106C32.6124 21.0297 32.7831 21.0117 32.9528 21.0185L47.3117 21.6072L48.9205 21.6723L50.3552 21.7296L52.1033 21.8015L53.6424 21.8611L55.0715 21.9161L56.6162 21.9757L57.8172 21.9948L57.9385 19.7905L58.2385 20.1028L60.6933 24.0541C60.7292 24.1125 60.7977 24.1417 60.8034 24.1833C60.8112 24.2439 60.7427 24.2934 60.636 24.2866L48.5194 23.5238L34.5009 22.6419C34.1279 22.6183 33.6639 22.488 33.355 22.6643C31.4608 23.8541 29.7217 24.0395 27.6646 23.125C27.0108 22.834 26.3221 22.8857 25.6244 22.9239L24.4942 22.9856L18.5534 23.3047L17.4187 23.3631L16.2323 23.4328L15.028 23.4935L0.249963 24.2911C0.16458 24.2956 0.08032 24.2889 0.0409989 24.2776C-0.00730988 24.2641 -0.0129272 24.0934 0.024147 24.0462L2.75303 20.559C2.89347 20.9848 2.7755 21.3499 2.81707 21.8802L2.81819 21.8813Z" fill="black"/>
<path d="M19.5454 20.5971L16.6525 20.6634L14.1528 20.7286L12.6069 20.7477L10.1622 20.8095L3.66525 20.9768C3.60908 19.8534 3.54729 18.7648 3.57201 17.6323C4.94263 17.4469 6.26494 17.3526 7.64118 17.2526C9.46456 17.2413 11.2351 17.1751 13.0675 17.2649C17.9658 17.5042 22.7618 18.5288 27.3388 20.25C27.3163 20.387 27.1995 20.4252 27.0737 20.4275L24.6212 20.4758L22.3574 20.5151L21.4654 20.5634L19.5465 20.5971H19.5454Z" fill="black"/>
<path d="M54.8265 15.2339L55.7623 15.9203C55.7275 16.0181 55.6713 16.0765 55.5882 16.0731C50.018 15.7855 44.594 15.7495 39.089 16.8033C37.169 17.1707 35.3412 17.7325 33.6245 18.5548C33.5897 18.3751 33.647 18.3279 33.7447 18.2526C35.0524 17.2437 36.4332 16.4158 37.8925 15.6305C42.592 13.1015 47.9565 11.6017 53.321 11.7747L55.0287 13.2678C55.1803 13.4004 55.3343 13.5318 55.332 13.7509C50.8629 13.2128 46.5949 13.8217 42.3729 15.2698C42.3302 15.2844 42.2864 15.2653 42.2437 15.3114C42.2167 15.3406 42.2415 15.426 42.3381 15.4103L46.6836 14.6879C49.4181 14.3542 52.2313 14.1969 54.8276 15.235L54.8265 15.2339Z" fill="black"/>
<path d="M41.8967 19.7118L39.2453 19.7624L38.4094 19.7995L35.2795 19.9343C35.2424 19.9062 35.2345 19.7365 35.284 19.7219C39.9598 18.2704 44.7649 17.4132 49.6643 17.2065L55.049 17.1807L56.3972 17.2705L56.4005 20.6825C52.3651 20.0522 48.3262 19.7219 44.2402 19.7163L41.8955 19.7129L41.8967 19.7118Z" fill="black"/>
<path d="M27.0624 19.2727C19.7037 16.5101 11.6676 15.8394 3.86963 16.6719L3.8584 15.5664C4.84817 15.5001 5.81434 15.3282 6.83894 15.3294L12.3113 15.3361C15.0256 15.4226 17.6781 15.8057 20.3148 16.4281C22.7292 16.9977 24.9907 17.8942 27.1376 19.0918C27.205 19.1289 27.2005 19.166 27.2062 19.1963C27.2185 19.2615 27.1444 19.3042 27.0635 19.2738L27.0624 19.2727Z" fill="black"/>
<path d="M30.5305 19.4143L30.453 18.5964L30.3957 16.9269L30.3351 15.2047L30.2766 13.4813L30.2216 11.6894L30.1609 9.7907L30.1317 7.33707C30.7294 6.50571 31.3889 5.81141 32.1202 5.10587C33.4437 3.82962 34.875 2.74773 36.5276 1.92423C38.4813 0.951317 40.5204 0.279488 42.6942 0.0345735C43.0976 -0.0114884 43.5222 -0.0182291 43.9211 0.0559193C44.3199 0.130068 44.7648 0.452501 45.0603 0.791786L51.7415 8.4594L53.2874 10.2356L50.3124 10.276C47.3499 10.3165 43.8975 11.4478 41.1618 12.6499C39.3486 13.4464 37.6656 14.3857 35.9804 15.4282C34.5132 16.3349 33.1684 17.3404 31.8001 18.3784L30.5305 19.4131V19.4143Z" fill="black"/>
<path d="M20.8654 15.1504C15.3391 13.9495 9.88692 13.8922 4.26625 14.1775C4.15278 14.1674 4.25389 13.8843 4.3213 13.8135L5.43352 12.653L11.9979 6.39981L13.8527 4.62137C14.1336 4.35174 14.4201 4.10233 14.838 4.06413L16.9445 3.87315L19.3307 3.86865C22.773 4.0192 26.2805 5.0775 29.1408 6.98064C29.407 7.15815 29.5407 7.45362 29.5407 7.7783L29.5239 19.0635C27.2152 16.9851 23.9021 15.8481 20.8654 15.1493V15.1504Z" fill="black"/>
</svg>
