<svg width="89" height="34" viewBox="0 0 89 34" fill="none" xmlns="http://www.w3.org/2000/svg">
<g clip-path="url(#clip0_123_236)">
<path d="M17.5849 13.7896C17.3496 13.6541 17.1557 13.4557 17.0233 13.215C16.7465 12.7101 16.7465 12.0931 17.0233 11.5882C17.1557 11.3474 17.3496 11.149 17.5849 11.0136C17.8363 10.874 18.1185 10.8029 18.4047 10.807C18.64 10.7947 18.8754 10.8316 19.096 10.9165C19.294 11.004 19.4705 11.1354 19.6122 11.3009L19.2471 11.6457C19.0466 11.4117 18.755 11.279 18.4501 11.2831C18.2536 11.2776 18.0597 11.3269 17.8885 11.4268C17.7294 11.5143 17.597 11.6457 17.506 11.8058C17.4124 11.9822 17.367 12.1806 17.371 12.3804C17.3643 12.5815 17.4098 12.7799 17.506 12.955C17.5943 13.1178 17.7267 13.2519 17.8885 13.3395C18.061 13.4352 18.2549 13.4817 18.4501 13.4776C18.755 13.4831 19.0466 13.3504 19.2471 13.1151L19.6122 13.4653C19.4718 13.6309 19.294 13.7608 19.096 13.8443C18.8807 13.936 18.6494 13.9811 18.4167 13.977C18.1292 13.9852 17.843 13.9209 17.5849 13.7868V13.7896Z" fill="black"/>
<path d="M23.5893 13.7897C22.8458 13.3806 22.569 12.4325 22.9688 11.6732C23.1105 11.4036 23.3258 11.1834 23.5893 11.0383C24.1081 10.762 24.7273 10.762 25.2461 11.0383C25.4815 11.1738 25.6754 11.3722 25.8078 11.613C26.2504 12.3477 26.0284 13.3108 25.3103 13.7637C25.2889 13.7774 25.2675 13.7897 25.2461 13.802C24.7233 14.0674 24.1081 14.062 23.5893 13.7911V13.7897ZM24.96 13.3532C25.1191 13.2657 25.2502 13.1316 25.3357 12.9688C25.5216 12.624 25.5216 12.2054 25.3357 11.8592C25.2502 11.6964 25.1191 11.5623 24.96 11.4748C24.7901 11.3722 24.5949 11.3229 24.3983 11.3311C24.2017 11.3229 24.0065 11.3722 23.8367 11.4748C23.6775 11.5651 23.5452 11.6978 23.4542 11.8592C23.275 12.2054 23.275 12.6213 23.4542 12.9688C23.5438 13.1302 23.6762 13.2643 23.8367 13.3532C24.0078 13.4518 24.2017 13.4983 24.3983 13.4914C24.5869 13.486 24.7701 13.4312 24.9319 13.33L24.96 13.3532Z" fill="black"/>
<path d="M32.0421 12.6062C32.141 12.7484 32.1932 12.9195 32.1879 13.0946C32.1972 13.3395 32.0835 13.5721 31.8843 13.7089C31.6209 13.8717 31.3146 13.9483 31.0084 13.9278H29.52V10.8536H30.9241C31.213 10.8344 31.4992 10.9083 31.7439 11.0656C31.9271 11.197 32.0341 11.4118 32.0301 11.6402C32.0327 11.7812 31.998 11.9207 31.9284 12.0425C31.8602 12.1601 31.7613 12.2559 31.6423 12.3188C31.8027 12.3667 31.9431 12.468 32.0408 12.6062H32.0421ZM30.0763 11.3009V12.1451H30.8907C31.0472 12.1547 31.2036 12.1191 31.34 12.0411C31.443 11.9713 31.5032 11.8509 31.4978 11.7251C31.5058 11.5978 31.4457 11.4774 31.34 11.409C31.205 11.3269 31.0485 11.2886 30.8907 11.2996H30.0763V11.3009ZM31.6262 13.0248C31.6262 12.7266 31.4069 12.5829 30.975 12.5829H30.0763V13.4681H30.975C31.4069 13.479 31.6262 13.3299 31.6262 13.0371V13.0262V13.0248Z" fill="black"/>
<path d="M37.9514 13.4448V13.9278H35.7048V10.8535H37.9006V11.331H36.2611V12.13H37.7107V12.6006H36.2611V13.4448H37.9514Z" fill="black"/>
<path d="M43.4556 13.9278L42.8432 13.0262H42.0515V13.9223H41.4899V10.8535H42.7255C42.9582 10.8494 43.1895 10.8946 43.4048 10.9862C43.5867 11.0642 43.7405 11.1969 43.8488 11.3652C43.9518 11.5376 44.0053 11.7374 43.9999 11.9398C43.9999 12.1437 43.9437 12.3421 43.8368 12.5145C43.7191 12.6869 43.5519 12.8168 43.3594 12.888L44.0507 13.899L43.4556 13.9278ZM43.247 11.4911C43.0852 11.3693 42.886 11.3119 42.6854 11.3296H42.0502V12.5541H42.6854C42.886 12.5719 43.0852 12.5145 43.247 12.3927C43.3741 12.2791 43.4449 12.1122 43.4383 11.9385C43.449 11.7661 43.3781 11.5992 43.247 11.4897V11.4911Z" fill="black"/>
<path d="M48.112 11.3365H47.1184V10.8535H49.6686V11.3365H48.675V13.9278H48.1133V11.3365H48.112Z" fill="black"/>
<path d="M53.2671 13.6118C53.021 13.3327 52.8954 12.9646 52.9194 12.5884V10.8645H53.4811V12.5884C53.4811 13.1917 53.7338 13.49 54.2446 13.49C54.7555 13.49 55.0029 13.1917 55.0029 12.5884V10.8645H55.5645V12.5884C55.5886 12.9633 55.4629 13.3327 55.2168 13.6118C54.9574 13.8635 54.607 13.9921 54.2513 13.9675C53.8889 13.9948 53.5332 13.8649 53.2684 13.6118H53.2671Z" fill="black"/>
<path d="M61.2211 13.9278L60.6087 13.0262H59.8116V13.9223H59.25V10.8535H60.4856C60.7183 10.8494 60.9497 10.8946 61.165 10.9862C61.3482 11.0615 61.5033 11.1942 61.6089 11.3652C61.7172 11.5362 61.7721 11.736 61.7667 11.9398C61.7667 12.1437 61.7092 12.3448 61.5982 12.5145C61.4846 12.6882 61.3187 12.8196 61.1262 12.888L61.8175 13.899L61.2225 13.9278H61.2211ZM61.0125 11.4911C60.8507 11.3693 60.6514 11.3119 60.4509 11.3296H59.7943V12.5541H60.4509C60.6514 12.5719 60.8507 12.5145 61.0125 12.3927C61.1395 12.2791 61.2104 12.1122 61.2037 11.9385C61.2091 11.7675 61.1382 11.6033 61.0125 11.4897V11.4911Z" fill="black"/>
<path d="M67.2521 13.2149H65.7464L65.4548 13.9278H64.8932L66.2465 10.8535H66.8081L68.1615 13.9278H67.5998L67.2521 13.2149ZM67.0676 12.7662L66.5059 11.4213L65.9443 12.7662H67.0676Z" fill="black"/>
<path d="M71.6959 13.8702C71.5073 13.8183 71.3308 13.7266 71.1797 13.6007L71.3763 13.1588C71.51 13.2669 71.6624 13.3476 71.8256 13.3996C72.0061 13.4653 72.196 13.4981 72.3872 13.4967C72.5597 13.5063 72.7336 13.4694 72.8874 13.3873C72.9903 13.3271 73.0545 13.2163 73.0559 13.0945C73.0572 13.0124 73.0224 12.9344 72.9609 12.8824C72.8927 12.8222 72.8152 12.7757 72.7309 12.7443L72.3431 12.6348C72.1519 12.5924 71.9647 12.5363 71.7815 12.4679C71.6424 12.4118 71.5167 12.3229 71.4164 12.2093C71.3107 12.0725 71.2559 11.9015 71.2653 11.7263C71.2653 11.5608 71.3121 11.3994 71.4003 11.2612C71.5006 11.1148 71.641 10.9999 71.8042 10.9342C72.0168 10.8466 72.2441 10.8028 72.4728 10.8083C72.6627 10.8042 72.8513 10.8302 73.0345 10.8836C73.1989 10.9219 73.3554 10.9889 73.4945 11.0847L73.3206 11.5266C73.1923 11.45 73.0545 11.3898 72.9101 11.3487C72.7737 11.3063 72.6319 11.2844 72.4889 11.2858C72.3177 11.2708 72.1479 11.3118 72.0008 11.4007C71.8991 11.4664 71.8363 11.5813 71.8376 11.7058C71.8376 11.7879 71.8724 11.8659 71.9326 11.9179C72.0008 11.9767 72.0783 12.0219 72.1626 12.0506L72.5504 12.1601C72.7416 12.2011 72.9288 12.2572 73.112 12.327C73.2524 12.3803 73.3781 12.4693 73.4771 12.5856C73.5841 12.7196 73.6389 12.8893 73.6282 13.063C73.6282 13.2272 73.5827 13.3873 73.4931 13.5227C73.3915 13.6705 73.2484 13.7854 73.0826 13.8497C72.87 13.9359 72.6426 13.977 72.414 13.9701C72.1706 13.9756 71.9285 13.9414 71.6945 13.873L71.6959 13.8702Z" fill="black"/>
<path d="M0 33.9999C1.45628 28.0129 2.91656 22.2105 4.38086 16.5942H16.5687V20.3635C13.4903 20.421 10.4132 20.4894 7.33487 20.5701C6.56327 23.4514 5.80371 26.3779 5.05484 29.3509C8.88476 29.0171 12.72 28.7339 16.558 28.4999V32.2637C11.0204 32.7125 5.50015 33.2898 0 33.9985L0 33.9999Z" fill="black"/>
<path d="M27.7454 16.582H23.8875V16.5875H27.7454V16.582Z" fill="black"/>
<path d="M27.7454 20.1843V27.954C29.6029 27.8856 31.4603 27.8282 33.3178 27.7816V31.3211C28.2964 31.4825 23.2803 31.752 18.2709 32.131C18.2656 30.8901 18.2709 29.6437 18.2709 28.4014C20.1337 28.2947 21.9979 28.1989 23.862 28.1155L23.8794 20.2349C22.0166 20.2609 20.1551 20.2896 18.2937 20.3225C18.2937 19.0761 18.2937 17.8119 18.299 16.5874H33.3338V20.1268C31.471 20.1432 29.6069 20.161 27.7454 20.1843Z" fill="black"/>
<path d="M43.8541 21.2596C43.1534 19.7041 42.45 18.1471 41.7426 16.5874H36.1876C35.4388 21.4717 34.6899 26.3752 33.941 31.2978C35.2516 31.2554 36.5621 31.2253 37.8726 31.2061C38.3968 27.716 38.921 24.2381 39.4452 20.7712L41.5848 24.7936C43.3714 24.7936 45.1607 24.7936 46.9539 24.7936L49.1337 20.7712C49.6579 24.2422 50.1821 27.716 50.7063 31.1952C52.0088 31.1952 53.3072 31.2526 54.6378 31.2869C53.8889 26.3683 53.1401 21.469 52.3912 16.5874H46.8764C46.173 18.143 45.4682 19.7 44.7648 21.2596H43.8555H43.8541Z" fill="black"/>
<path d="M84.5736 33.4594C83.7539 32.2486 82.9342 31.0597 82.1131 29.8913C80.4281 29.7422 78.7766 29.6094 77.1037 29.4836V32.6727L73.2457 32.328L73.2123 16.5833H77.0703L77.1037 25.6158L80.0016 25.7772C80.7504 22.7618 81.4993 19.6972 82.2481 16.5833H86.2639C85.4883 19.7711 84.7154 22.9123 83.9438 26.0071C85.6394 28.5697 87.3244 31.2321 88.9986 33.9944C87.5437 33.8111 86.0607 33.6318 84.5723 33.4594H84.5736Z" fill="black"/>
<path d="M69.4318 16.582H58.3673C57.6185 21.532 56.8509 26.4478 56.0646 31.3321C57.3671 31.3731 58.6655 31.4251 59.9961 31.4826C60.1486 30.5044 60.301 29.5261 60.4535 28.5452C62.7843 28.6286 65.1178 28.7326 67.4513 28.8585C67.6078 29.8791 67.7643 30.9011 67.9207 31.9245C69.2246 32.0093 70.523 32.1051 71.8188 32.2118C71.0138 26.9444 70.2181 21.7345 69.4318 16.582ZM61.0071 24.9784C61.2545 23.3818 61.5005 21.7824 61.7479 20.1789L66.1234 20.2364C66.3775 21.8741 66.6303 23.5158 66.8843 25.1631C64.9306 25.0906 62.9702 25.029 61.0071 24.9784Z" fill="black"/>
<path d="M20.995 8.58384H32.0154C32.0154 8.58384 45.2088 -5.59845 60.9911 8.58384H63.1361C63.1361 8.58384 57.5584 0.774412 43.6856 0.0274001C29.1269 -0.507548 21.7198 7.02004 20.995 8.58384Z" fill="black"/>
</g>
<defs>
<clipPath id="clip0_123_236">
<rect width="89" height="34" fill="white"/>
</clipPath>
</defs>
</svg>
