<svg width="22" height="21" viewBox="0 0 22 21" fill="none" xmlns="http://www.w3.org/2000/svg">
<path d="M5.0587 20.9972L3.95991 20.9301C3.13029 20.8793 2.35222 20.5927 1.71364 20.1089L1.5856 20.012C0.689712 19.2728 0.127227 18.247 0.0593198 17.1056L0 16.111V4.89682L0.0580914 3.93894C0.103499 3.1888 0.4099 2.29223 0.875026 1.7143C1.77582 0.595143 2.92412 0.108979 4.3964 0.0320515C5.1712 -0.00855977 5.90468 0.000812061 6.69462 0.00120255L16.8276 0.00862192C17.4269 0.00901242 17.9718 0.0343945 18.542 0.144904C20.2634 0.478385 21.5758 1.76233 21.8777 3.4145C21.9705 3.92175 22 4.40128 22 4.9343V15.9985C22 16.5659 21.9726 17.081 21.8695 17.6199C21.5426 19.3287 20.137 20.6321 18.3367 20.8945C17.6298 20.9976 16.9638 21.0004 16.2356 21L5.05993 20.9968L5.0587 20.9972ZM6.70117 15.8353C7.97791 16.9955 9.81346 17.3485 11.4572 16.6643C12.9286 16.052 14.0344 14.6463 14.0393 13.021L14.054 8.35463C14.8165 8.88258 15.6699 9.18951 16.6185 9.30783V6.58882C15.939 6.57515 15.3115 6.40998 14.7981 6.04604C14.0757 5.5341 13.5791 4.86479 13.4158 3.99634L11.6756 3.99946L11.6506 13.0714C11.6486 13.8254 10.983 14.4448 10.3399 14.649C9.54019 14.9028 8.77071 14.6576 8.21027 14.0863C7.61955 13.4842 7.59869 12.5204 8.07241 11.8468C8.55431 11.1611 9.42483 10.8503 10.3089 11.0912V8.8244C9.45306 8.72326 8.61485 8.80448 7.84496 9.15749C6.72735 9.6702 5.89528 10.6343 5.55492 11.7687C5.19616 12.9644 5.4187 14.1952 6.12682 15.2152C6.29372 15.4554 6.46472 15.6201 6.70158 15.8353H6.70117Z" fill="black"/>
</svg>
