<svg width="22" height="22" viewBox="0 0 22 22" fill="none" xmlns="http://www.w3.org/2000/svg">
<path d="M0 21.6326L1.51938 15.8579C0.550482 14.0244 0.0622708 11.9874 0.222894 9.90297C0.340684 8.4255 0.726177 7.05503 1.37144 5.7992C4.41019 -0.113491 11.9384 -1.8484 17.1696 2.19945C19.6555 4.12302 21.1836 7.05986 21.3192 10.226C21.458 13.4621 20.1369 16.5659 17.7395 18.7095C14.4172 21.6801 9.6116 22.2227 5.73682 20.09L0 21.6326ZM6.08106 17.8957C9.61477 20.2987 14.2641 19.6543 17.0986 16.4999C19.8359 13.4528 20.0683 8.86717 17.6598 5.57474C14.5865 1.37363 8.65301 0.813296 4.89602 4.39977C1.8422 7.31488 1.32662 12.0176 3.69511 15.5369L2.8579 18.7416L6.08106 17.8961V17.8957Z" fill="black"/>
<path d="M13.0349 11.908C13.3982 11.6489 13.9055 11.7298 14.2636 11.9381L15.4328 12.6179C15.9607 12.9249 16.0261 13.5355 15.739 14.085C15.2289 15.0608 14.1312 15.5491 13.0179 15.4329C9.96131 14.813 7.48612 12.6803 6.08414 9.90073C5.36987 8.48441 5.55311 6.69922 6.81707 5.96591C7.33463 5.66583 7.95015 5.78249 8.27814 6.29737C8.6085 6.81547 8.87819 7.3931 9.04 8.00332C9.17762 8.52262 8.88533 9.02906 8.53593 9.37459C8.29638 9.61152 8.25871 9.86654 8.43162 10.1457C9.2625 11.4872 10.4824 12.5492 11.976 13.0809C12.3068 13.1988 12.5344 12.2648 13.0346 11.908H13.0349Z" fill="black"/>
</svg>
